<svg width="18" height="18" viewBox="0 0 18 18" fill="none" xmlns="http://www.w3.org/2000/svg">
<path d="M6.33333 8.99997L8.11111 10.7777L11.6667 7.22219M1 8.99997C1 10.0505 1.20693 11.0908 1.60896 12.0614C2.011 13.032 2.60028 13.914 3.34315 14.6568C4.08601 15.3997 4.96793 15.989 5.93853 16.391C6.90914 16.793 7.94943 17 9 17C10.0506 17 11.0909 16.793 12.0615 16.391C13.0321 15.989 13.914 15.3997 14.6569 14.6568C15.3997 13.914 15.989 13.032 16.391 12.0614C16.7931 11.0908 17 10.0505 17 8.99997C17 7.94939 16.7931 6.90911 16.391 5.9385C15.989 4.9679 15.3997 4.08598 14.6569 3.34312C13.914 2.60025 13.0321 2.01097 12.0615 1.60893C11.0909 1.2069 10.0506 0.999969 9 0.999969C7.94943 0.999969 6.90914 1.2069 5.93853 1.60893C4.96793 2.01097 4.08601 2.60025 3.34315 3.34312C2.60028 4.08598 2.011 4.9679 1.60896 5.9385C1.20693 6.90911 1 7.94939 1 8.99997Z" stroke="#A03233" stroke-width="1.5" stroke-linecap="round" stroke-linejoin="round"/>
</svg>
