<svg width="36" height="36" viewBox="0 0 36 36" fill="none" xmlns="http://www.w3.org/2000/svg">
<path d="M25.2178 3.04102H10.2588C6.12798 3.04102 2.7793 6.3897 2.7793 10.5205V25.4795C2.7793 29.6103 6.12798 32.959 10.2588 32.959H25.2178C29.3486 32.959 32.6973 29.6103 32.6973 25.4795V10.5205C32.6973 6.3897 29.3486 3.04102 25.2178 3.04102Z" stroke="black" stroke-width="1.5" stroke-linecap="round" stroke-linejoin="round"/>
<path d="M23.7208 17.0576C23.9054 18.3025 23.6928 19.574 23.1131 20.6912C22.5335 21.8083 21.6163 22.7142 20.4921 23.28C19.3679 23.8459 18.0939 24.0428 16.8513 23.8429C15.6088 23.6429 14.4609 23.0563 13.5709 22.1663C12.681 21.2764 12.0943 20.1285 11.8944 18.8859C11.6944 17.6433 11.8914 16.3693 12.4572 15.2451C13.023 14.1209 13.929 13.2038 15.0461 12.6241C16.1632 12.0445 17.4347 11.8318 18.6797 12.0164C19.9496 12.2047 21.1252 12.7965 22.033 13.7042C22.9408 14.612 23.5325 15.7877 23.7208 17.0576Z" stroke="black" stroke-width="1.5" stroke-linecap="round" stroke-linejoin="round"/>
<path d="M25.9658 9.77255H25.9802" stroke="black" stroke-width="1.5" stroke-linecap="round" stroke-linejoin="round"/>
</svg>
