<svg width="23" height="23" viewBox="0 0 23 23" fill="none" xmlns="http://www.w3.org/2000/svg">
<path fill-rule="evenodd" clip-rule="evenodd" d="M6.50684 2.25049C4.15963 2.25049 2.25684 4.15328 2.25684 6.50049V16.5005C2.25684 18.8477 4.15963 20.7505 6.50684 20.7505H16.5068C18.854 20.7505 20.7568 18.8477 20.7568 16.5005V6.50049C20.7568 4.15328 18.854 2.25049 16.5068 2.25049H6.50684ZM0.756836 6.50049C0.756836 3.32485 3.3312 0.750488 6.50684 0.750488H16.5068C19.6825 0.750488 22.2568 3.32485 22.2568 6.50049V16.5005C22.2568 19.6761 19.6825 22.2505 16.5068 22.2505H6.50684C3.3312 22.2505 0.756836 19.6761 0.756836 16.5005V6.50049ZM12.0268 8.24243C11.3506 8.14216 10.66 8.25766 10.0533 8.5725C9.44649 8.88735 8.95444 9.3855 8.6471 9.99611C8.33976 10.6067 8.23279 11.2987 8.34139 11.9736C8.44999 12.6485 8.76864 13.272 9.25202 13.7554C9.73539 14.2388 10.3589 14.5574 11.0338 14.666C11.7087 14.7746 12.4007 14.6676 13.0113 14.3603C13.6219 14.053 14.12 13.5609 14.4349 12.9541C14.7497 12.3474 14.8652 11.6568 14.765 10.9806C14.6627 10.2908 14.3413 9.65224 13.8482 9.15918C13.3552 8.66612 12.7166 8.34471 12.0268 8.24243ZM9.36241 7.24107C10.2492 6.78091 11.2586 6.61211 12.2469 6.75866C13.255 6.90815 14.1882 7.3779 14.9089 8.09852C15.6295 8.81915 16.0992 9.75244 16.2487 10.7605C16.3953 11.7488 16.2265 12.7582 15.7663 13.645C15.3062 14.5318 14.5781 15.251 13.6857 15.7001C12.7932 16.1493 11.7819 16.3057 10.7955 16.147C9.80907 15.9882 8.89783 15.5225 8.19136 14.816C7.48489 14.1096 7.01917 13.1983 6.86044 12.2119C6.70171 11.2255 6.85806 10.2142 7.30725 9.32173C7.75643 8.4293 8.47558 7.70123 9.36241 7.24107ZM17.0068 5.25049C16.5926 5.25049 16.2568 5.58627 16.2568 6.00049C16.2568 6.4147 16.5926 6.75049 17.0068 6.75049H17.0168C17.431 6.75049 17.7668 6.4147 17.7668 6.00049C17.7668 5.58627 17.431 5.25049 17.0168 5.25049H17.0068Z" fill="white"/>
</svg>
