<svg width="25" height="24" viewBox="0 0 25 24" fill="none" xmlns="http://www.w3.org/2000/svg">
<path d="M22.9001 22.4L15.9668 15.4667M2.1001 9.6889C2.1001 10.7511 2.30932 11.803 2.71583 12.7844C3.12233 13.7658 3.71816 14.6575 4.46928 15.4086C5.2204 16.1597 6.11211 16.7556 7.0935 17.1621C8.07489 17.5686 9.12674 17.7778 10.189 17.7778C11.2512 17.7778 12.3031 17.5686 13.2845 17.1621C14.2659 16.7556 15.1576 16.1597 15.9087 15.4086C16.6598 14.6575 17.2556 13.7658 17.6621 12.7844C18.0687 11.803 18.2779 10.7511 18.2779 9.6889C18.2779 8.62665 18.0687 7.5748 17.6621 6.59341C17.2556 5.61202 16.6598 4.72031 15.9087 3.96919C15.1576 3.21806 14.2659 2.62224 13.2845 2.21574C12.3031 1.80923 11.2512 1.60001 10.189 1.60001C9.12674 1.60001 8.07489 1.80923 7.0935 2.21574C6.11211 2.62224 5.2204 3.21806 4.46928 3.96919C3.71816 4.72031 3.12233 5.61202 2.71583 6.59341C2.30932 7.5748 2.1001 8.62665 2.1001 9.6889Z" stroke="#656565" stroke-width="1.44" stroke-linecap="round" stroke-linejoin="round"/>
</svg>
