<svg width="41" height="41" viewBox="0 0 41 41" fill="none" xmlns="http://www.w3.org/2000/svg">
<rect width="41" height="41" fill="white"/>
<rect y="-3.05176e-05" width="41" height="41" rx="20.5" fill="#D0021B"/>
<g clip-path="url(#clip0_482_11126)">
<path d="M15.6855 30.1296L20.5003 19.2963M18.9355 22.9074C19.4615 24.4276 20.6568 25.3148 22.005 25.3148C24.4978 25.3148 26.5188 23.4442 26.5188 20.5C26.5199 19.621 26.3284 18.7526 25.9579 17.9556C25.5873 17.1586 25.0467 16.4524 24.3741 15.8867C23.7014 15.321 22.913 14.9095 22.0643 14.6811C21.2155 14.4527 20.3271 14.413 19.4614 14.5647C18.5957 14.7165 17.7737 15.056 17.0532 15.5594C16.3327 16.0628 15.7313 16.7179 15.2911 17.4786C14.8509 18.2393 14.5826 19.0872 14.5052 19.9627C14.4278 20.8382 14.5431 21.7201 14.8429 22.5463M9.66699 20.5C9.66699 21.9226 9.9472 23.3313 10.4916 24.6457C11.0361 25.9601 11.834 27.1543 12.84 28.1603C13.846 29.1662 15.0402 29.9642 16.3546 30.5087C17.6689 31.0531 19.0777 31.3333 20.5003 31.3333C21.923 31.3333 23.3317 31.0531 24.6461 30.5087C25.9604 29.9642 27.1547 29.1662 28.1606 28.1603C29.1666 27.1543 29.9646 25.9601 30.509 24.6457C31.0534 23.3313 31.3337 21.9226 31.3337 20.5C31.3337 19.0773 31.0534 17.6686 30.509 16.3542C29.9646 15.0399 29.1666 13.8456 28.1606 12.8396C27.1547 11.8337 25.9604 11.0357 24.6461 10.4913C23.3317 9.94684 21.923 9.66663 20.5003 9.66663C19.0777 9.66663 17.6689 9.94684 16.3546 10.4913C15.0402 11.0357 13.846 11.8337 12.84 12.8396C11.834 13.8456 11.0361 15.0399 10.4916 16.3542C9.9472 17.6686 9.66699 19.0773 9.66699 20.5Z" stroke="white" stroke-width="1.5" stroke-linecap="round" stroke-linejoin="round"/>
</g>
<defs>
<clipPath id="clip0_482_11126">
<rect width="25" height="25" fill="white" transform="translate(8 7.99997)"/>
</clipPath>
</defs>
</svg>
