<svg width="41" height="41" viewBox="0 0 41 41" fill="none" xmlns="http://www.w3.org/2000/svg">
<rect width="41" height="41" fill="white"/>
<rect y="-3.05176e-05" width="41" height="41" rx="20.5" fill="#A03233"/>
<path d="M16.1781 23.9912L23.9912 16.178M18.7825 12.2714L19.3854 11.5734C20.6066 10.3524 22.2628 9.6665 23.9897 9.66663C25.7166 9.66675 27.3728 10.3529 28.5938 11.5741C29.8148 12.7953 30.5007 14.4515 30.5006 16.1784C30.5005 17.9053 29.8143 19.5615 28.5931 20.7825L27.8978 21.3867M21.3869 27.8977L20.8699 28.5931C19.6344 29.8148 17.967 30.5 16.2295 30.5C14.4921 30.5 12.8247 29.8148 11.5892 28.5931C10.9802 27.9909 10.4968 27.274 10.1668 26.4837C9.83689 25.6935 9.66699 24.8456 9.66699 23.9892C9.66699 23.1328 9.83689 22.2849 10.1668 21.4947C10.4968 20.7044 10.9802 19.9874 11.5892 19.3853L12.2715 18.7824" stroke="white" stroke-width="1.5" stroke-linecap="round" stroke-linejoin="round"/>
</svg>
