<svg width="41" height="41" viewBox="0 0 41 41" fill="none" xmlns="http://www.w3.org/2000/svg">
<rect width="41" height="41" fill="white"/>
<rect y="-3.05176e-05" width="41" height="41" rx="20.5" fill="#5CA00E"/>
<g clip-path="url(#clip0_482_11118)">
<path d="M8.83301 32.1448L10.9719 27.2188C9.33553 24.8959 8.60313 22.0557 8.91214 19.2312C9.22115 16.4067 10.5503 13.792 12.6502 11.8778C14.7501 9.9637 17.4764 8.8817 20.3174 8.83488C23.1584 8.78807 25.9188 9.77966 28.0807 11.6236C30.2425 13.4675 31.6571 16.0369 32.059 18.8498C32.4609 21.6626 31.8225 24.5254 30.2635 26.9009C28.7046 29.2765 26.3323 31.0015 23.5919 31.7521C20.8514 32.5028 17.9312 32.2276 15.3793 30.9781L8.83301 32.1448Z" stroke="white" stroke-width="1.5" stroke-linecap="round" stroke-linejoin="round"/>
<path d="M16.6113 17.8855C16.6113 18.0574 16.6796 18.2222 16.8012 18.3438C16.9227 18.4653 17.0876 18.5336 17.2595 18.5336C17.4314 18.5336 17.5962 18.4653 17.7178 18.3438C17.8393 18.2222 17.9076 18.0574 17.9076 17.8855V16.5892C17.9076 16.4173 17.8393 16.2524 17.7178 16.1309C17.5962 16.0093 17.4314 15.941 17.2595 15.941C17.0876 15.941 16.9227 16.0093 16.8012 16.1309C16.6796 16.2524 16.6113 16.4173 16.6113 16.5892V17.8855ZM16.6113 17.8855C16.6113 19.6045 17.2942 21.2531 18.5097 22.4686C19.7252 23.6841 21.3738 24.367 23.0928 24.367M23.0928 24.367H24.3891C24.561 24.367 24.7259 24.2987 24.8474 24.1771C24.969 24.0556 25.0373 23.8907 25.0373 23.7188C25.0373 23.5469 24.969 23.3821 24.8474 23.2605C24.7259 23.139 24.561 23.0707 24.3891 23.0707H23.0928C22.9209 23.0707 22.7561 23.139 22.6345 23.2605C22.5129 23.3821 22.4447 23.5469 22.4447 23.7188C22.4447 23.8907 22.5129 24.0556 22.6345 24.1771C22.7561 24.2987 22.9209 24.367 23.0928 24.367Z" stroke="white" stroke-width="1.5" stroke-linecap="round" stroke-linejoin="round"/>
</g>
<defs>
<clipPath id="clip0_482_11118">
<rect width="25" height="25" fill="white" transform="translate(8 7.99997)"/>
</clipPath>
</defs>
</svg>
