<svg width="26" height="19" viewBox="0 0 26 19" fill="none" xmlns="http://www.w3.org/2000/svg">
<path fill-rule="evenodd" clip-rule="evenodd" d="M13.075 1.06814C13.075 0.25 13.0749 0.25 13.0749 0.25H13.0745H13.0734H13.0691L13.0525 0.250015L12.9884 0.250124C12.9324 0.250248 12.8502 0.250495 12.745 0.250989C12.5347 0.251975 12.2326 0.253947 11.8643 0.257887C11.128 0.265763 10.1258 0.281523 9.06362 0.313085C8.0028 0.344608 6.87565 0.39208 5.89152 0.463861C4.93026 0.533974 4.03614 0.631443 3.48227 0.77957L3.48225 0.779488L3.47092 0.782692C2.81886 0.967173 2.22703 1.32046 1.7552 1.80688C1.28338 2.2933 0.948275 2.89561 0.783735 3.55299C0.779309 3.57067 0.775475 3.5885 0.77224 3.60644C0.420246 5.55833 0.247928 7.53837 0.257447 9.52171C0.245183 11.52 0.417514 13.5151 0.772246 15.4817C0.777039 15.5083 0.783144 15.5346 0.790539 15.5606C0.971937 16.1976 1.31455 16.777 1.78528 17.2428C2.256 17.7087 2.83893 18.0453 3.47773 18.2201L3.48227 18.2213C4.03614 18.3694 4.93026 18.4669 5.89152 18.537C6.87565 18.6088 8.0028 18.6563 9.06362 18.6878C10.1258 18.7194 11.128 18.7351 11.8643 18.743C12.2326 18.7469 12.5347 18.7489 12.745 18.7499C12.8502 18.7504 12.9324 18.7506 12.9884 18.7508L13.0525 18.7509L13.0691 18.7509L13.0734 18.7509H13.0745H13.0749C13.0749 18.7509 13.075 18.7509 13.075 17.9327C13.075 18.7509 13.075 18.7509 13.0751 18.7509H13.0754H13.0766L13.0809 18.7509L13.0975 18.7509L13.1615 18.7508C13.2176 18.7506 13.2998 18.7504 13.405 18.7499C13.6153 18.7489 13.9174 18.7469 14.2857 18.743C15.022 18.7351 16.0242 18.7194 17.0864 18.6878C18.1472 18.6563 19.2743 18.6088 20.2585 18.537C21.2197 18.4669 22.1138 18.3694 22.6677 18.2213L22.6677 18.2214L22.6791 18.2182C23.3311 18.0337 23.923 17.6804 24.3948 17.194C24.8666 16.7076 25.2017 16.1053 25.3663 15.4479C25.3707 15.4302 25.3745 15.4124 25.3778 15.3944C25.7271 13.457 25.8994 11.4919 25.8925 9.52329C25.9048 7.52484 25.7325 5.52953 25.3777 3.56277C25.3745 3.54485 25.3707 3.52703 25.3663 3.50936C25.2017 2.85198 24.8666 2.24966 24.3948 1.76325C23.923 1.27683 23.3311 0.923539 22.6791 0.739058C22.6696 0.73637 22.66 0.733853 22.6504 0.731511C22.103 0.597847 21.2148 0.509128 20.2533 0.445094C19.2706 0.379649 18.1446 0.33634 17.0843 0.30757C16.0227 0.278769 15.021 0.264386 14.285 0.257197C13.9168 0.253602 13.6148 0.251802 13.4046 0.250902C13.2995 0.250452 13.2174 0.250226 13.1614 0.250113L13.0974 0.250014L13.0808 0.25H13.0766H13.0754H13.0751C13.075 0.25 13.075 0.25 13.075 1.06814ZM13.075 1.06814L13.075 1.88628H13.0748L13.0738 1.88628L13.07 1.88628L13.0543 1.8863L12.9921 1.8864C12.9373 1.88652 12.8564 1.88676 12.7527 1.88725C12.5452 1.88822 12.2464 1.89017 11.8818 1.89407C11.1522 1.90188 10.1609 1.91748 9.11222 1.94864C8.06224 1.97984 6.96132 2.02646 6.01055 2.09581C5.04169 2.16647 4.29665 2.25664 3.91072 2.35878C3.53797 2.46531 3.19968 2.66784 2.92971 2.94615C2.66428 3.2198 2.47408 3.55723 2.37736 3.9257C2.04635 5.77126 1.88447 7.64319 1.89373 9.51821L1.89378 9.52739H1.89372C1.88189 11.4119 2.04295 13.2935 2.37486 15.1485C2.48162 15.5006 2.67451 15.8207 2.93629 16.0798C3.20644 16.3472 3.54086 16.5405 3.90734 16.6412C4.29229 16.7437 5.03885 16.8342 6.01055 16.9051C6.96132 16.9744 8.06224 17.021 9.11222 17.0522C10.1609 17.0834 11.1522 17.099 11.8818 17.1068C12.2464 17.1107 12.5452 17.1127 12.7527 17.1136C12.8564 17.1141 12.9373 17.1144 12.9921 17.1145L13.0543 17.1146L13.07 17.1146L13.0738 17.1146H13.0748H13.075L13.075 17.9327L13.075 17.1146H13.0752H13.0761L13.08 17.1146L13.0957 17.1146L13.1579 17.1145C13.2127 17.1144 13.2936 17.1141 13.3973 17.1136C13.6048 17.1127 13.9036 17.1107 14.2682 17.1068C14.9978 17.099 15.9891 17.0834 17.0378 17.0522C18.0877 17.021 19.1887 16.9744 20.1394 16.9051C21.1083 16.8344 21.8533 16.7442 22.2392 16.6421C22.612 16.5356 22.9503 16.333 23.2203 16.0547C23.4857 15.7811 23.6759 15.4436 23.7726 15.0752C24.1011 13.2436 24.2629 11.386 24.2563 9.5252L24.2562 9.51712L24.2563 9.51712C24.2681 7.6279 24.1062 5.74161 23.7726 3.88208C23.6759 3.51361 23.4857 3.17617 23.2203 2.90252C22.9524 2.62631 22.6171 2.42475 22.2477 2.31758C21.853 2.22364 21.106 2.14179 20.1446 2.07776C19.1924 2.01434 18.0903 1.97175 17.0399 1.94325C15.9906 1.91478 14.9988 1.90053 14.269 1.8934C13.9042 1.88984 13.6052 1.88806 13.3976 1.88717C13.2938 1.88672 13.2129 1.8865 13.1581 1.88639L13.0958 1.88629L13.08 1.88628L13.0762 1.88628L13.0752 1.88628H13.075L13.075 1.06814ZM11.025 5.24392C10.7717 5.0999 10.461 5.10142 10.2091 5.24791C9.9573 5.3944 9.80237 5.66376 9.80237 5.9551V13.0893C9.80237 13.3806 9.9573 13.65 10.2091 13.7965C10.461 13.943 10.7717 13.9445 11.025 13.8005L17.2974 10.2334C17.5531 10.0879 17.7111 9.81639 17.7111 9.5222C17.7111 9.228 17.5531 8.95645 17.2974 8.81102L11.025 5.24392ZM15.2379 9.5222L11.4386 11.6828V7.36156L15.2379 9.5222Z" fill="white"/>
</svg>
