<svg width="36" height="36" viewBox="0 0 36 36" fill="none" xmlns="http://www.w3.org/2000/svg">
<g clip-path="url(#clip0_97_1061)">
<path d="M33.5312 9.9106C33.3544 9.20456 32.9945 8.55765 32.4878 8.03522C31.981 7.51279 31.3454 7.13335 30.645 6.93521C28.0862 6.31038 17.8508 6.31038 17.8508 6.31038C17.8508 6.31038 7.61551 6.31038 5.05667 6.99472C4.35633 7.19286 3.72069 7.5723 3.21393 8.09473C2.70718 8.61716 2.34726 9.26406 2.17054 9.97011C1.70224 12.567 1.47316 15.2013 1.4862 17.84C1.46951 20.4986 1.6986 23.153 2.17054 25.7694C2.36537 26.4535 2.73335 27.0758 3.23892 27.5762C3.7445 28.0766 4.37058 28.4381 5.05667 28.6258C7.61551 29.3101 17.8508 29.3101 17.8508 29.3101C17.8508 29.3101 28.0862 29.3101 30.645 28.6258C31.3454 28.4277 31.981 28.0482 32.4878 27.5258C32.9945 27.0034 33.3544 26.3565 33.5312 25.6504C33.9958 23.0731 34.2249 20.4589 34.2155 17.84C34.2322 15.1814 34.0031 12.527 33.5312 9.9106Z" stroke="black" stroke-width="1.50295" stroke-linecap="round" stroke-linejoin="round"/>
<path d="M14.5029 22.7048L23.0572 17.8401L14.5029 12.9753V22.7048Z" stroke="black" stroke-width="1.50295" stroke-linecap="round" stroke-linejoin="round"/>
</g>
<defs>
<clipPath id="clip0_97_1061">
<rect width="35.0688" height="35.0688" fill="white" transform="translate(0.316406 0.465576)"/>
</clipPath>
</defs>
</svg>
